<svg width="29" height="29" viewBox="0 0 29 29" fill="none" xmlns="http://www.w3.org/2000/svg">
<path opacity="0.2" d="M3.625 14.2428L9.0625 17.2187V23.4311L4.09625 20.7123C3.95391 20.6344 3.83508 20.5198 3.75219 20.3803C3.66929 20.2408 3.62537 20.0816 3.625 19.9194V14.2428ZM19.9375 17.2187V23.4311L24.9037 20.7123C25.0461 20.6344 25.1649 20.5198 25.2478 20.3803C25.3307 20.2408 25.3746 20.0816 25.375 19.9194V14.244L19.9375 17.2187ZM14.065 2.83202L9.42047 5.37632L14.5 8.15624L19.5818 5.37405L14.935 2.83202C14.8016 2.75904 14.652 2.72079 14.5 2.72079C14.348 2.72079 14.1984 2.75904 14.065 2.83202Z" fill="#E4A951"/>
<path d="M25.3387 7.49354L15.37 2.03905C15.1034 1.89249 14.8042 1.81564 14.5 1.81564C14.1958 1.81564 13.8966 1.89249 13.63 2.03905L3.66125 7.49694C3.37656 7.65271 3.13891 7.88205 2.97313 8.16102C2.80734 8.44 2.71949 8.75836 2.71875 9.08288V19.9171C2.71949 20.2416 2.80734 20.56 2.97313 20.839C3.13891 21.1179 3.37656 21.3473 3.66125 21.503L13.63 26.9598C13.8964 27.107 14.1957 27.1842 14.5 27.1842C14.8043 27.1842 15.1036 27.107 15.37 26.9598L25.3387 21.503C25.6234 21.3473 25.8611 21.1179 26.0269 20.839C26.1927 20.56 26.2805 20.2416 26.2812 19.9171V9.08288C26.2811 8.75779 26.1936 8.43871 26.0277 8.15909C25.8619 7.87946 25.6239 7.64959 25.3387 7.49354ZM19.0312 17.2187V22.893L15.4062 24.8777V15.0369L24.4688 10.0752V13.7002L19.5025 16.419C19.3591 16.4974 19.2397 16.6131 19.1567 16.7539C19.0737 16.8947 19.0304 17.0553 19.0312 17.2187ZM9.4975 16.4258L4.53125 13.707V10.082L13.5938 15.0437V24.8845L9.96875 22.893V17.2187C9.96838 17.0565 9.92446 16.8973 9.84156 16.7578C9.75867 16.6183 9.63984 16.5037 9.4975 16.4258ZM9.4182 6.41057L14.0627 8.95374C14.1961 9.02671 14.3457 9.06496 14.4977 9.06496C14.6498 9.06496 14.7994 9.02671 14.9327 8.95374L19.5773 6.41057L23.4832 8.54819L14.5 13.4669L5.51227 8.54593L9.4182 6.41057ZM14.5 3.62499L17.6945 5.37405L14.5 7.12425L11.3055 5.37518L14.5 3.62499ZM4.53125 15.771L8.15625 17.7557V21.9007L4.53125 19.9171V15.771ZM20.8438 21.9007V17.7557L24.4688 15.771V19.9171L20.8438 21.9007Z" fill="#E4A951"/>
</svg>
